<svg width="35" height="36" viewBox="0 0 35 36" fill="none" xmlns="http://www.w3.org/2000/svg">
<path fill-rule="evenodd" clip-rule="evenodd" d="M12.094 19.0605C11.8206 18.7792 11.667 18.3978 11.667 18C11.667 17.6023 11.8206 17.2208 12.094 16.9395L20.3438 8.45403C20.4783 8.31076 20.6392 8.19649 20.8171 8.11787C20.9951 8.03926 21.1864 7.99788 21.3801 7.99615C21.5737 7.99442 21.7657 8.03237 21.9449 8.10779C22.1242 8.18322 22.287 8.29459 22.4239 8.43543C22.5608 8.57627 22.6691 8.74375 22.7425 8.92809C22.8158 9.11244 22.8527 9.30996 22.851 9.50913C22.8493 9.7083 22.8091 9.90513 22.7327 10.0881C22.6562 10.2711 22.5451 10.4367 22.4058 10.575L15.1871 18L22.4058 25.425C22.6715 25.7079 22.8185 26.0868 22.8152 26.4801C22.8118 26.8734 22.6585 27.2496 22.3881 27.5278C22.1177 27.8059 21.7519 27.9636 21.3696 27.967C20.9872 27.9705 20.6188 27.8193 20.3438 27.546L12.094 19.0605Z" fill="white"/>
</svg>
