<svg width="19" height="21" viewBox="0 0 19 21" fill="none" xmlns="http://www.w3.org/2000/svg">
<path d="M16.625 9.94737H2.375V4.42105H16.625M14.8438 16.5789C14.3713 16.5789 13.9183 16.4043 13.5842 16.0934C13.2502 15.7824 13.0625 15.3608 13.0625 14.9211C13.0625 14.4814 13.2502 14.0597 13.5842 13.7487C13.9183 13.4378 14.3713 13.2632 14.8438 13.2632C15.3162 13.2632 15.7692 13.4378 16.1033 13.7487C16.4373 14.0597 16.625 14.4814 16.625 14.9211C16.625 15.3608 16.4373 15.7824 16.1033 16.0934C15.7692 16.4043 15.3162 16.5789 14.8438 16.5789ZM4.15625 16.5789C3.68383 16.5789 3.23077 16.4043 2.89672 16.0934C2.56267 15.7824 2.375 15.3608 2.375 14.9211C2.375 14.4814 2.56267 14.0597 2.89672 13.7487C3.23077 13.4378 3.68383 13.2632 4.15625 13.2632C4.62867 13.2632 5.08174 13.4378 5.41578 13.7487C5.74983 14.0597 5.9375 14.4814 5.9375 14.9211C5.9375 15.3608 5.74983 15.7824 5.41578 16.0934C5.08174 16.4043 4.62867 16.5789 4.15625 16.5789ZM0 15.4737C0 16.4463 0.463125 17.3195 1.1875 17.9274V19.8947C1.1875 20.1879 1.31261 20.469 1.53531 20.6763C1.75801 20.8836 2.06006 21 2.375 21H3.5625C3.87744 21 4.17949 20.8836 4.40219 20.6763C4.62489 20.469 4.75 20.1879 4.75 19.8947V18.7895H14.25V19.8947C14.25 20.1879 14.3751 20.469 14.5978 20.6763C14.8205 20.8836 15.1226 21 15.4375 21H16.625C16.9399 21 17.242 20.8836 17.4647 20.6763C17.6874 20.469 17.8125 20.1879 17.8125 19.8947V17.9274C18.5369 17.3195 19 16.4463 19 15.4737V4.42105C19 0.552632 14.7488 0 9.5 0C4.25125 0 0 0.552632 0 4.42105V15.4737Z" fill="#4259CB"/>
</svg>
