<svg width="16" height="16" viewBox="0 0 16 16" fill="none" xmlns="http://www.w3.org/2000/svg">
<path fill-rule="evenodd" clip-rule="evenodd" d="M5.33333 2.66634H10.6667V1.33301H12V2.66634H12.6667C13.0203 2.66634 13.3594 2.80682 13.6095 3.05687C13.8595 3.30691 14 3.64605 14 3.99967V13.333C14 13.6866 13.8595 14.0258 13.6095 14.2758C13.3594 14.5259 13.0203 14.6663 12.6667 14.6663H3.33333C2.97971 14.6663 2.64057 14.5259 2.39052 14.2758C2.14048 14.0258 2 13.6866 2 13.333V3.99967C2 3.64605 2.14048 3.30691 2.39052 3.05687C2.64057 2.80682 2.97971 2.66634 3.33333 2.66634H4V1.33301H5.33333V2.66634ZM3.33333 5.33301V13.333H12.6667V5.33301H3.33333ZM4.66667 7.33301H6V8.66634H4.66667V7.33301ZM7.33333 7.33301H8.66667V8.66634H7.33333V7.33301ZM10 7.33301H11.3333V8.66634H10V7.33301ZM10 9.99967H11.3333V11.333H10V9.99967ZM7.33333 9.99967H8.66667V11.333H7.33333V9.99967ZM4.66667 9.99967H6V11.333H4.66667V9.99967Z" fill="black"/>
</svg>
