<svg width="21" height="21" viewBox="0 0 21 21" fill="none" xmlns="http://www.w3.org/2000/svg">
<path d="M17.2083 0C18.2139 0 19.1784 0.399478 19.8894 1.11055C20.6005 1.82163 21 2.78605 21 3.79167V17.2083C21 18.2139 20.6005 19.1784 19.8894 19.8894C19.1784 20.6005 18.2139 21 17.2083 21H3.79167C2.78605 21 1.82163 20.6005 1.11055 19.8894C0.399478 19.1784 0 18.2139 0 17.2083V3.79167C0 2.78605 0.399478 1.82163 1.11055 1.11055C1.82163 0.399478 2.78605 0 3.79167 0H17.2083ZM1.75 17.2083C1.75 18.3353 2.66467 19.25 3.79167 19.25H17.2083C17.7498 19.25 18.2691 19.0349 18.652 18.652C19.0349 18.2691 19.25 17.7498 19.25 17.2083V6.41667H1.75V17.2083ZM14.2567 9.00667C14.3368 8.9207 14.4334 8.85175 14.5407 8.80392C14.648 8.7561 14.7639 8.73038 14.8814 8.72831C14.9989 8.72624 15.1156 8.74785 15.2245 8.79186C15.3335 8.83586 15.4325 8.90137 15.5155 8.98446C15.5986 9.06754 15.6641 9.16652 15.7081 9.27547C15.7522 9.38442 15.7738 9.50112 15.7717 9.61861C15.7696 9.7361 15.7439 9.85196 15.6961 9.95929C15.6483 10.0666 15.5793 10.1632 15.4933 10.2433L9.66 16.0767C9.49594 16.2405 9.27354 16.3326 9.04167 16.3326C8.80979 16.3326 8.5874 16.2405 8.42333 16.0767L5.50667 13.16C5.34755 13.0015 5.2555 12.7878 5.24957 12.5633C5.24364 12.3387 5.32429 12.1205 5.47482 11.9538C5.62534 11.7871 5.83421 11.6846 6.05819 11.6677C6.28216 11.6507 6.50408 11.7205 6.678 11.8627L6.74333 11.9233L9.04167 14.2217L14.2567 9.00667ZM3.79167 1.75C3.25018 1.75 2.73088 1.9651 2.34799 2.34799C1.9651 2.73088 1.75 3.25018 1.75 3.79167V4.66667H19.25V3.79167C19.25 3.25018 19.0349 2.73088 18.652 2.34799C18.2691 1.9651 17.7498 1.75 17.2083 1.75H3.79167Z" fill="#9DB2CE"/>
</svg>
