<svg width="28" height="28" viewBox="0 0 28 28" fill="none" xmlns="http://www.w3.org/2000/svg">
<path d="M21.3125 1V4.9M6.6875 1V4.9M14 1V4.9M15.625 2.95H12.375C7.0125 2.95 4.33125 2.95 2.66563 4.2825C1 5.615 1 7.76 1 12.05V17.9C1 22.19 1 24.335 2.66563 25.6675C4.33125 27 7.0125 27 12.375 27H15.625C20.9875 27 23.6688 27 25.3344 25.6675C27 24.335 27 22.19 27 17.9V12.05C27 7.76 27 5.615 25.3344 4.2825C23.6688 2.95 20.9875 2.95 15.625 2.95Z" stroke="#2842C4" stroke-width="1.5" stroke-linecap="round" stroke-linejoin="round"/>
<path d="M6.6875 12.7L8.3125 14L11.5625 10.75M15.625 20.5H20.5M15.625 12.7H20.5" stroke="#2842C4" stroke-width="1.5" stroke-linecap="round" stroke-linejoin="round"/>
<path d="M8.29626 20.3271H8.31252" stroke="#2842C4" stroke-width="2" stroke-linecap="round" stroke-linejoin="round"/>
</svg>
