<svg width="18" height="24" viewBox="0 0 18 24" fill="none" xmlns="http://www.w3.org/2000/svg">
<path d="M5.25 7.5C5.05109 7.5 4.86032 7.57902 4.71967 7.71967C4.57902 7.86032 4.5 8.05109 4.5 8.25C4.5 8.44891 4.57902 8.63968 4.71967 8.78033C4.86032 8.92098 5.05109 9 5.25 9H12.75C12.9489 9 13.1397 8.92098 13.2803 8.78033C13.421 8.63968 13.5 8.44891 13.5 8.25C13.5 8.05109 13.421 7.86032 13.2803 7.71967C13.1397 7.57902 12.9489 7.5 12.75 7.5H5.25ZM5.25 10.5C5.05109 10.5 4.86032 10.579 4.71967 10.7197C4.57902 10.8603 4.5 11.0511 4.5 11.25C4.5 11.4489 4.57902 11.6397 4.71967 11.7803C4.86032 11.921 5.05109 12 5.25 12H9.75C9.94891 12 10.1397 11.921 10.2803 11.7803C10.421 11.6397 10.5 11.4489 10.5 11.25C10.5 11.0511 10.421 10.8603 10.2803 10.7197C10.1397 10.579 9.94891 10.5 9.75 10.5H5.25Z" fill="#2842C4"/>
<path d="M9 3C9.79565 3 10.5587 2.68393 11.1213 2.12132C11.6839 1.55871 12 0.79565 12 0H15.75C16.3467 0 16.919 0.237053 17.341 0.65901C17.7629 1.08097 18 1.65326 18 2.25V21.75C18 22.3467 17.7629 22.919 17.341 23.341C16.919 23.7629 16.3467 24 15.75 24H2.25C1.65326 24 1.08097 23.7629 0.65901 23.341C0.237053 22.919 0 22.3467 0 21.75V2.25C0 1.65326 0.237053 1.08097 0.65901 0.65901C1.08097 0.237053 1.65326 0 2.25 0L6 0C6 0.79565 6.31607 1.55871 6.87868 2.12132C7.44129 2.68393 8.20435 3 9 3ZM9 4.5C8.06902 4.50049 7.16081 4.21222 6.40053 3.67492C5.64025 3.13761 5.06533 2.37773 4.755 1.5H2.25C2.05109 1.5 1.86032 1.57902 1.71967 1.71967C1.57902 1.86032 1.5 2.05109 1.5 2.25V21.75C1.5 21.9489 1.57902 22.1397 1.71967 22.2803C1.86032 22.421 2.05109 22.5 2.25 22.5H15.75C15.9489 22.5 16.1397 22.421 16.2803 22.2803C16.421 22.1397 16.5 21.9489 16.5 21.75V2.25C16.5 2.05109 16.421 1.86032 16.2803 1.71967C16.1397 1.57902 15.9489 1.5 15.75 1.5H13.245C12.9347 2.37773 12.3598 3.13761 11.5995 3.67492C10.8392 4.21222 9.93098 4.50049 9 4.5Z" fill="#2842C4"/>
</svg>
