<svg width="32" height="32" viewBox="0 0 32 32" fill="none" xmlns="http://www.w3.org/2000/svg">
<path d="M9.16267 22.8373L19.488 19.488L22.8373 9.16267L12.5138 12.5138L9.16267 22.8373ZM15.9929 17.984C15.4394 17.984 14.9713 17.7902 14.5884 17.4027C14.208 17.0151 14.0178 16.5452 14.0178 15.9929C14.0178 15.4394 14.211 14.9713 14.5973 14.5884C14.9849 14.208 15.4548 14.0178 16.0071 14.0178C16.5606 14.0178 17.0287 14.211 17.4116 14.5973C17.7932 14.9849 17.984 15.4548 17.984 16.0071C17.984 16.5606 17.7902 17.0287 17.4027 17.4116C17.0151 17.7932 16.5452 17.984 15.9929 17.984ZM16.0053 32C13.7926 32 11.7126 31.5804 9.76533 30.7413C7.81807 29.901 6.12385 28.7609 4.68267 27.3209C3.24148 25.8809 2.10074 24.1884 1.26044 22.2436C0.420148 20.2987 0 18.2193 0 16.0053C0 13.7914 0.420148 11.7114 1.26044 9.76533C2.09956 7.81807 3.23793 6.12385 4.67556 4.68267C6.11319 3.24148 7.80622 2.10074 9.75467 1.26044C11.7031 0.420148 13.7831 0 15.9947 0C18.2062 0 20.2862 0.420148 22.2347 1.26044C24.1819 2.09956 25.8761 3.23852 27.3173 4.67733C28.7585 6.11615 29.8993 7.80919 30.7396 9.75644C31.5799 11.7037 32 13.7831 32 15.9947C32 18.2062 31.5804 20.2862 30.7413 22.2347C29.9022 24.1831 28.7621 25.8773 27.3209 27.3173C25.8797 28.7573 24.1873 29.8981 22.2436 30.7396C20.2999 31.581 18.2204 32.0012 16.0053 32ZM16 30.2222C19.9633 30.2222 23.3244 28.8427 26.0836 26.0836C28.8427 23.3244 30.2222 19.9633 30.2222 16C30.2222 12.0367 28.8427 8.67556 26.0836 5.91644C23.3244 3.15733 19.9633 1.77778 16 1.77778C12.0367 1.77778 8.67556 3.15733 5.91644 5.91644C3.15733 8.67556 1.77778 12.0367 1.77778 16C1.77778 19.9633 3.15733 23.3244 5.91644 26.0836C8.67556 28.8427 12.0367 30.2222 16 30.2222Z" fill="#9DB2CE"/>
</svg>
