<svg width="24" height="24" viewBox="0 0 24 24" fill="none" xmlns="http://www.w3.org/2000/svg">
<path d="M6.872 17.128L14.616 14.616L17.128 6.872L9.38533 9.38533L6.872 17.128ZM11.9947 13.488C11.5796 13.488 11.2284 13.3427 10.9413 13.052C10.656 12.7613 10.5133 12.4089 10.5133 11.9947C10.5133 11.5796 10.6582 11.2284 10.948 10.9413C11.2387 10.656 11.5911 10.5133 12.0053 10.5133C12.4204 10.5133 12.7716 10.6582 13.0587 10.948C13.3449 11.2387 13.488 11.5911 13.488 12.0053C13.488 12.4204 13.3427 12.7716 13.052 13.0587C12.7613 13.3449 12.4089 13.488 11.9947 13.488ZM12.004 24C10.3444 24 8.78444 23.6853 7.324 23.056C5.86356 22.4258 4.59289 21.5707 3.512 20.4907C2.43111 19.4107 1.57556 18.1413 0.945333 16.6827C0.315111 15.224 0 13.6644 0 12.004C0 10.3436 0.315111 8.78356 0.945333 7.324C1.57467 5.86356 2.42844 4.59289 3.50667 3.512C4.58489 2.43111 5.85467 1.57556 7.316 0.945333C8.77733 0.315111 10.3373 0 11.996 0C13.6547 0 15.2147 0.315111 16.676 0.945333C18.1364 1.57467 19.4071 2.42889 20.488 3.508C21.5689 4.58711 22.4244 5.85689 23.0547 7.31733C23.6849 8.77778 24 10.3373 24 11.996C24 13.6547 23.6853 15.2147 23.056 16.676C22.4267 18.1373 21.5716 19.408 20.4907 20.488C19.4098 21.568 18.1404 22.4236 16.6827 23.0547C15.2249 23.6858 13.6653 24.0009 12.004 24ZM12 22.6667C14.9724 22.6667 17.4933 21.632 19.5627 19.5627C21.632 17.4933 22.6667 14.9724 22.6667 12C22.6667 9.02756 21.632 6.50667 19.5627 4.43733C17.4933 2.368 14.9724 1.33333 12 1.33333C9.02756 1.33333 6.50667 2.368 4.43733 4.43733C2.368 6.50667 1.33333 9.02756 1.33333 12C1.33333 14.9724 2.368 17.4933 4.43733 19.5627C6.50667 21.632 9.02756 22.6667 12 22.6667Z" fill="#386BF6"/>
</svg>
