<svg width="25" height="25" viewBox="0 0 25 25" fill="none" xmlns="http://www.w3.org/2000/svg">
<path d="M20.54 7.32006L14.78 3.29006C13.21 2.19006 10.8 2.25006 9.28999 3.42006L4.27999 7.33006C3.27999 8.11006 2.48999 9.71006 2.48999 10.9701V17.8701C2.48999 20.4201 4.55999 22.5001 7.10999 22.5001H17.89C20.44 22.5001 22.51 20.4301 22.51 17.8801V11.1001C22.51 9.75006 21.64 8.09006 20.54 7.32006ZM13.25 18.5001C13.25 18.9101 12.91 19.2501 12.5 19.2501C12.09 19.2501 11.75 18.9101 11.75 18.5001V15.5001C11.75 15.0901 12.09 14.7501 12.5 14.7501C12.91 14.7501 13.25 15.0901 13.25 15.5001V18.5001Z" fill="#386BF6"/>
</svg>
