<svg width="18" height="18" viewBox="0 0 18 18" fill="none" xmlns="http://www.w3.org/2000/svg">
<path d="M9 8C9.55 8 10.021 7.80433 10.413 7.413C10.805 7.02167 11.0007 6.55067 11 6C10.9993 5.44933 10.8037 4.97867 10.413 4.588C10.0223 4.19733 9.55133 4.00133 9 4C8.44867 3.99867 7.978 4.19467 7.588 4.588C7.198 4.98133 7.002 5.452 7 6C6.998 6.548 7.194 7.019 7.588 7.413C7.982 7.807 8.45267 8.00267 9 8ZM4 18V16H8V12.9C7.18333 12.7167 6.45433 12.371 5.813 11.863C5.17167 11.355 4.70067 10.7173 4.4 9.95C3.15 9.8 2.10433 9.25433 1.263 8.313C0.421667 7.37167 0.000666667 6.26733 0 5V4C0 3.45 0.196 2.97933 0.588 2.588C0.98 2.19667 1.45067 2.00067 2 2H4V0H14V2H16C16.55 2 17.021 2.196 17.413 2.588C17.805 2.98 18.0007 3.45067 18 4V5C18 6.26667 17.579 7.371 16.737 8.313C15.895 9.255 14.8493 9.80067 13.6 9.95C13.3 10.7167 12.8293 11.3543 12.188 11.863C11.5467 12.3717 10.8173 12.7173 10 12.9V16H14V18H4ZM4 7.8V4H2V5C2 5.63333 2.18333 6.20433 2.55 6.713C2.91667 7.22167 3.4 7.584 4 7.8ZM9 11C9.83333 11 10.5417 10.7083 11.125 10.125C11.7083 9.54167 12 8.83333 12 8V2H6V8C6 8.83333 6.29167 9.54167 6.875 10.125C7.45833 10.7083 8.16667 11 9 11ZM14 7.8C14.6 7.58333 15.0833 7.22067 15.45 6.712C15.8167 6.20333 16 5.63267 16 5V4H14V7.8Z" fill="#2842C4"/>
</svg>
