<svg width="24" height="23" viewBox="0 0 24 23" fill="none" xmlns="http://www.w3.org/2000/svg">
<path d="M3 22.5H8.625V21H3C2.80116 20.9998 2.61054 20.9207 2.46994 20.7801C2.32935 20.6395 2.25025 20.4488 2.25 20.25V14.625H0.75V20.25C0.75067 20.8465 0.987938 21.4184 1.40975 21.8403C1.83156 22.2621 2.40347 22.4993 3 22.5ZM2.25 2.25C2.25025 2.05116 2.32935 1.86054 2.46994 1.71994C2.61054 1.57935 2.80116 1.50025 3 1.5H8.625V0H3C2.40347 0.000669968 1.83156 0.237938 1.40975 0.65975C0.987938 1.08156 0.75067 1.65347 0.75 2.25V7.875H2.25V2.25ZM21 0H15.375V1.5H21C21.1988 1.50025 21.3895 1.57935 21.5301 1.71994C21.6707 1.86054 21.7498 2.05116 21.75 2.25V7.875H23.25V2.25C23.2493 1.65347 23.0121 1.08156 22.5903 0.65975C22.1684 0.237938 21.5965 0.000669968 21 0ZM21.75 20.25C21.7498 20.4488 21.6707 20.6395 21.5301 20.7801C21.3895 20.9207 21.1988 20.9998 21 21H15.375V22.5H21C21.5965 22.4993 22.1684 22.2621 22.5903 21.8403C23.0121 21.4184 23.2493 20.8465 23.25 20.25V14.625H21.75V20.25ZM18.75 11.25C18.75 7.52812 15.7219 4.5 12 4.5C8.27812 4.5 5.25 7.52812 5.25 11.25C5.25 14.9719 8.27812 18 12 18C15.7219 18 18.75 14.9719 18.75 11.25ZM12 16.5C10.9616 16.5 9.94661 16.1921 9.08326 15.6152C8.2199 15.0383 7.54699 14.2184 7.14963 13.2591C6.75227 12.2998 6.6483 11.2442 6.85088 10.2258C7.05345 9.20738 7.55346 8.27192 8.28769 7.53769C9.02192 6.80346 9.95738 6.30345 10.9758 6.10088C11.9942 5.8983 13.0498 6.00227 14.0091 6.39963C14.9684 6.79699 15.7883 7.4699 16.3652 8.33326C16.9421 9.19661 17.25 10.2116 17.25 11.25C17.2484 12.6419 16.6948 13.9763 15.7106 14.9606C14.7263 15.9448 13.3919 16.4984 12 16.5Z" fill="white"/>
</svg>
