<svg width="11" height="11" viewBox="0 0 11 11" fill="none" xmlns="http://www.w3.org/2000/svg">
<path fill-rule="evenodd" clip-rule="evenodd" d="M6.728 5.49981L10.4561 1.77167C10.7957 1.43212 10.7957 0.88328 10.4561 0.543727C10.1166 0.204174 9.56773 0.204174 9.22818 0.543727L5.50005 4.27186L1.77192 0.543727C1.43237 0.204174 0.883524 0.204174 0.543971 0.543727C0.204418 0.88328 0.204418 1.43212 0.543971 1.77167L4.2721 5.49981L0.543971 9.22794C0.204418 9.56749 0.204418 10.1163 0.543971 10.4559C0.713313 10.6252 0.935629 10.7103 1.15794 10.7103C1.38026 10.7103 1.60258 10.6252 1.77192 10.4559L5.50005 6.72775L9.22818 10.4559C9.39752 10.6252 9.61984 10.7103 9.84216 10.7103C10.0645 10.7103 10.2868 10.6252 10.4561 10.4559C10.7957 10.1163 10.7957 9.56749 10.4561 9.22794L6.728 5.49981Z" fill="#231F20"/>
</svg>
